<svg xmlns="http://www.w3.org/2000/svg" width="32.442" height="26.482" viewBox="0 0 32.442 26.482"><path d="M61.924,208.286a4.222,4.222,0,0,1-4.164,0L48.333,202.5s-.851-.522-.851.66v5.773c0,3.041,5.534,6.32,12.36,6.32s12.36-3.279,12.36-6.32v-6.1c0-.948-.6-.485-.6-.485Z" transform="translate(-43.621 -188.776)" fill="#fff"/><path d="M31.9,45.778a.872.872,0,0,0,0-1.615L17.538,36.981a2.77,2.77,0,0,0-2.634,0L.543,44.162a.872.872,0,0,0,0,1.615L14.9,54.585a2.77,2.77,0,0,0,2.634,0" transform="translate(0 -36.648)" fill="#fff"/><path d="M358.191,195.743v-9.727s.007-.461-.267-.309a7.942,7.942,0,0,0-.946.586.816.816,0,0,0-.169.617v8.833a.259.259,0,0,1-.159.215,1.68,1.68,0,1,0,1.695,0A.25.25,0,0,1,358.191,195.743Z" transform="translate(-326.885 -173.558)" fill="#fff"/></svg>