<?xml version="1.0" encoding="utf-8"?>
<!-- Generator: Adobe Illustrator 25.4.1, SVG Export Plug-In . SVG Version: 6.00 Build 0)  -->
<svg version="1.1" id="Ebene_1" xmlns="http://www.w3.org/2000/svg" xmlns:xlink="http://www.w3.org/1999/xlink" x="0px" y="0px"
	 viewBox="0 0 200 58.3" style="enable-background:new 0 0 200 58.3;" xml:space="preserve">
<style type="text/css">
	.st0{fill:#FFFFFF;}
</style>
<g id="Cz4haD_00000101818292213226099650000002402841813771796105_">
	<g>
		<path class="st0" d="M0,5.8c8.3,0,16.6,0,25,0c0,6.6,0,13,0,19.6c-0.9,0-1.7,0-2.8,0c0-5.5,0-11,0-16.6c-7.5,0-14.9,0-22.2,0
			C0,7.8,0,6.8,0,5.8z"/>
		<path class="st0" d="M0,11.2c2.9,0.1,2.9,0.1,2.9,3c0,3.9,0,7.8,0,11.7c0,2.2-0.3,2,2,2c6.2,0,12.3,0,18.5,0c0.5,0,1,0,1.6,0
			c0,1,0,1.9,0,3c-8.3,0-16.7,0-25,0C0,24.4,0,17.8,0,11.2z"/>
		<path class="st0" d="M133,52.5c-0.5-0.3-1-0.6-1.6-1c0.5-0.9,0.9-1.5,2.2-1c1.3,0.6,2.2-0.2,2.2-1.9c-0.3,0.1-0.7,0.2-1,0.3
			c-2,0.5-3.4-0.5-3.6-2.5c-0.1-0.9-0.1-1.9,0-2.8c0.2-1.9,1.6-2.9,3.5-2.6c0.6,0.1,1.3,0.1,1.9,0c1-0.1,1.6,0,1.5,1.3
			c-0.1,1.9-0.1,3.8,0,5.6c0.1,2.1-0.6,3.7-2.6,4.5C134.6,52.5,133.8,52.5,133,52.5z M136,45c-0.2-0.6-0.2-1.4-0.6-1.6
			c-0.4-0.3-1.3-0.3-1.7,0c-0.8,0.5-0.7,3,0.1,3.4c0.4,0.2,1.3,0.2,1.6-0.1C135.7,46.3,135.8,45.6,136,45z"/>
		<path class="st0" d="M140.5,52.5c-0.1-0.6-0.2-1.2-0.3-1.8c1.8-0.7,2.1-1.4,1.5-3c-0.8-2.1-1.6-4.3-2.4-6.4
			c1.9-0.5,2.1-0.4,2.6,1.2c0.3,1,0.7,2,1.3,3c0.3-1,0.7-2,1-2.9c0.6-1.7,0.6-1.7,2.7-1.3c-0.6,1.5-1.1,3-1.6,4.5
			c-0.5,1.4-1.1,2.8-1.6,4.3c-0.4,1.2-1,2.1-2.2,2.5C141.3,52.5,140.9,52.5,140.5,52.5z"/>
		<path class="st0" d="M200,30.4c-0.6,0-1.2,0-1.7-0.1c-1.1-0.2-1.7-0.9-1.8-2c-0.1-0.9,0-1.8,0-2.7c0-0.7,0.3-1.4-0.7-1.8
			c-0.2-0.1-0.2-1.1-0.1-1.2c1.3-0.5,0.6-1.7,0.9-2.5c1.8-0.6,1.8-0.5,2.2,2.1c0.4,0,0.8,0,1.3,0.1c0,0.5,0,1.1,0,1.6
			c-0.4,0.1-0.9,0.1-1.4,0.2c0,1.1,0,2.1,0,3.2c-0.1,1.1,0.3,1.5,1.4,1.3C200,29.1,200,29.8,200,30.4z"/>
		<path class="st0" d="M106.3,19.2c1.6-0.5,2.4,0,3,1.5c0.5,1.4,1.3,2.7,2.1,4.4c0.8-1.6,1.6-3,2.1-4.4c0.5-1.4,1.4-1.8,2.9-1.4
			c0,3.6,0,7.3,0,11c-2.1,0.4-2.1,0.4-2.1-1.6c0-1.3,0-2.6-0.3-4c-0.5,0.9-0.9,1.8-1.4,2.6c-0.3,0.4-0.8,0.8-1.2,0.8
			c-0.4,0-0.9-0.4-1.2-0.8c-0.6-0.8-1-1.8-1.7-2.6c0,1.9,0,3.7,0,5.7c-0.8,0-1.4,0-2.2,0C106.3,26.6,106.3,22.9,106.3,19.2z"/>
		<path class="st0" d="M170.3,22.6c0.8-0.2,1.7-0.5,2.6-0.5c1.4-0.1,2.5,0.8,2.6,2.2c0.2,2,0,4,0,6.1c-0.7,0-1.2,0-2.1,0
			c0-1.2,0-2.4,0-3.6c0-0.4,0-0.9,0-1.3c0-0.9-0.4-1.5-1.4-1.5c-0.9,0-1.3,0.7-1.3,1.6c0,1.6,0,3.1,0,4.8c-0.7,0-1.3,0-2.1,0
			c0-1.7,0.1-3.3-0.1-5c0-0.5-0.7-1.1-1.2-1.3c-0.3-0.1-1,0.4-1.3,0.8c-0.3,0.4-0.2,1-0.2,1.6c0,1.3,0,2.6,0,3.9c-0.8,0-1.3,0-2.1,0
			c0-2.6,0-5.1,0.1-7.6c0-0.2,0.7-0.6,1.1-0.7c0.9-0.1,1.8-0.1,2.7-0.1C168.5,22.1,169.3,22.4,170.3,22.6z"/>
		<path class="st0" d="M8.8,14.5c2.4,0,4.7,0,7,0c0.2,0,0.7,0.5,0.7,0.7c0.1,2.3,0,4.6,0,6.9c-2.6,0-5.1,0-7.8,0
			C8.8,19.7,8.8,17.2,8.8,14.5z"/>
		<path class="st0" d="M150.2,29.6c-3.1,1-4.6,0-4.7-3.3c0-0.6,0-1.3,0.1-1.9c0.2-1.7,1.2-2.5,2.8-2.5c1.3,0,2.5,0.1,4,0.2
			c0,2.9,0.2,5.8-0.1,8.7c-0.3,2.7-4,3.5-6.4,1.6c0.5-0.9,0.9-1.4,2.1-0.9C149.4,32.1,150.3,31.3,150.2,29.6z M150.5,26.1
			c-0.2-0.6-0.2-1.4-0.5-1.7c-0.4-0.3-1.3-0.4-1.7-0.1c-0.7,0.4-0.8,2.8-0.1,3.3c0.4,0.3,1.3,0.4,1.7,0.1
			C150.2,27.4,150.3,26.6,150.5,26.1z"/>
		<path class="st0" d="M58.7,38.1c0,3.8,0,7.4,0,11.1c-1.5,0.1-3,0.3-4.4,0.2c-1.4,0-2.3-0.9-2.4-2.3c-0.1-1.1-0.2-2.2-0.1-3.4
			c0.2-2.3,1.7-3.3,4-2.6c0.2,0.1,0.4,0.2,0.8,0.3c0-1.2,0-2.3,0-3.4C57.4,38.1,58,38.1,58.7,38.1z M53.9,45.2c0,0.3,0.1,0.6,0.1,1
			c0.1,0.8,0.5,1.5,1.3,1.3c0.5-0.1,1-0.8,1.2-1.3c0.2-0.6,0.2-1.4,0-2c-0.2-0.5-0.8-1.2-1.3-1.2c-0.4,0-0.9,0.7-1.3,1.2
			C53.8,44.4,53.9,44.9,53.9,45.2z"/>
		<path class="st0" d="M41.1,20.3c-0.6,1-1.2,1.4-2.2,0.8c-0.2-0.1-0.5-0.1-0.8-0.2c-1,0-2-0.1-2.2,1.2c-0.2,1.3,0.9,1.4,1.9,1.6
			c0.3,0.1,0.6,0.1,0.9,0.1c1.8,0.3,2.7,1.2,2.9,2.7c0.2,1.6-0.6,3-2.3,3.5c-2.1,0.7-4.1,0.5-5.9-1c0.6-0.9,1.1-1.6,2.4-0.9
			c0.7,0.4,1.8,0.3,2.6,0.2c0.4-0.1,1-0.8,1-1.3c0-0.4-0.6-1-1.1-1.2c-0.6-0.3-1.3-0.2-2-0.4c-1.5-0.3-2.4-1.2-2.5-2.6
			c-0.1-1.6,0.5-2.8,1.9-3.4C37.4,18.6,39.7,19,41.1,20.3z"/>
		<path class="st0" d="M92.2,38.1c0,1.1,0,2.2,0,3.2c0.2,0.1,0.3,0.1,0.4,0.1c3-1,4.4,0.1,4.5,3.3c0,1.5,0,3,0,4.6
			c-0.8,0-1.4,0-2.2,0c0-1.4,0-2.7,0-4.1c0-1,0.2-2.3-1.4-2.3c-1.4,0-1.3,1.2-1.3,2.2c0,1.3,0,2.7,0,4c-2.1,0.5-2.2,0.4-2.2-1.5
			c0-2.6,0-5.3,0-7.9C90.1,37.9,90.1,37.9,92.2,38.1z"/>
		<path class="st0" d="M51.6,30.1c0-3.6,0-7.2,0-10.9c0.6,0,1.1,0,1.8,0c0.1,1.1,0.1,2.2,0.2,3.4c0.5-0.2,0.8-0.3,1.1-0.4
			c1.7-0.5,3.3,0.4,3.5,2.2c0.2,1.7,0.2,3.5,0.1,5.2c-0.1,1.3-1.1,0.6-2,0.7c0-1.6,0.1-3.1,0-4.6c0-0.5-0.2-1.2-0.6-1.5
			c-0.8-0.7-2-0.1-2.1,1.1c-0.1,1.2,0,2.4-0.1,3.6C53.5,30.4,53.5,30.4,51.6,30.1z"/>
		<path class="st0" d="M123.2,25.5c0-1.8-1-2.1-3.2-1.1c-0.3-0.4-0.6-0.8-1-1.2c0.8-1.1,2.7-1.5,4.5-1c1.3,0.4,1.9,1.2,1.9,2.9
			c0,1.7,0,3.4,0,5.3c-1.7,0-3.3,0.1-4.9,0c-1.3-0.1-2-1.2-2-2.5c0-1.3,0.8-2.2,2.1-2.3C121.5,25.4,122.3,25.5,123.2,25.5z
			 M123.2,26.9c-0.9,0.1-2-0.6-2.4,0.8c-0.1,0.2,0.7,0.9,1.1,0.9C122.9,28.8,123.5,28.2,123.2,26.9z"/>
		<path class="st0" d="M38.1,44.5c0-1.5-0.8-2.2-2.1-1.5c-1.2,0.6-1.6,0-2.1-0.7c0.9-1.2,2.8-1.6,4.7-1c1.4,0.5,1.8,1.6,1.8,3
			c0,1.7,0,3.3,0,5.2c-1.6,0-3.1,0.1-4.7,0c-1.4-0.1-2.2-1.1-2.2-2.5c0-1.3,0.9-2.2,2.3-2.4C36.5,44.4,37.3,44.5,38.1,44.5z
			 M38.2,45.9c-1,0.1-2.1-0.5-2.5,0.8c-0.1,0.2,0.6,0.9,1,0.9C37.8,47.8,38.3,47.2,38.2,45.9z"/>
		<path class="st0" d="M67.4,40c-0.8,0-1.3,0-1.9,0c-0.9,0.1-1-0.4-1.1-1.1c0-0.8,0.4-0.9,1.1-0.9c1.8,0,3.7,0,5.5,0
			c1.8,0,1.8,0,1.6,1.9c-0.1,0-0.3,0.1-0.5,0.2c-2.4,0.2-2.4,0.2-2.4,2.6c0,2.2,0,4.4,0,6.5c-2.2,0.6-2.3,0.5-2.3-1.6
			C67.4,45.1,67.4,42.7,67.4,40z"/>
		<path class="st0" d="M143.4,30.4c-1.6,0-3.1,0.1-4.6,0c-1.4-0.1-2.2-1.1-2.2-2.6c0-1.3,0.8-2.2,2.2-2.3c0.8-0.1,1.6,0,2.4,0
			c0.2-1.4-0.7-2.2-1.9-1.6c-1.1,0.5-1.7,0.1-2.2-0.7c0.9-1.2,2.8-1.6,4.6-1c1.5,0.5,1.8,1.6,1.8,3c0,1.5,0,3.1,0,4.6
			C143.5,29.9,143.5,30,143.4,30.4z M141.3,26.9c-1,0.1-2.1-0.5-2.5,0.8c-0.1,0.2,0.6,0.9,1,1C140.8,28.8,141.5,28.3,141.3,26.9z"/>
		<path class="st0" d="M134.8,30.3c-0.8,0-1.4,0-2.2,0c0-1.6,0-3.1,0-4.6c0-1-0.2-1.8-1.3-1.8c-1.1,0-1.4,0.8-1.4,1.8
			c0,1.5,0,3,0,4.6c-0.7,0-1.3,0.1-2.1,0.1c0-2.6,0-5.2,0.1-7.7c0-0.2,0.9-0.5,1.5-0.6c0.6-0.1,1.2,0.1,1.8,0
			c1.8-0.4,3.4,0.6,3.5,2.4c0.1,1.2,0,2.5,0,3.8C134.8,28.8,134.8,29.5,134.8,30.3z"/>
		<path class="st0" d="M80.3,45.9c-1.9,0-3.5,0-5.1,0c0.1,1.5,1.2,2.3,2.5,1.6c1.1-0.5,1.6-0.3,2.2,0.7c-1.1,1.3-2.6,1.4-4.2,1.1
			c-1.5-0.3-2.4-1.2-2.6-2.7c-0.1-0.8-0.2-1.7-0.1-2.5c0.2-1.9,1.6-3.1,3.5-3.1c1.9,0,3.2,1,3.6,2.9C80.2,44.5,80.2,45.1,80.3,45.9z
			 M78,44.4c0-1-0.5-1.6-1.4-1.6c-1,0-1.4,0.5-1.4,1.6C76.1,44.4,76.9,44.4,78,44.4z"/>
		<path class="st0" d="M156.7,26.8c0.3,2,1.4,2.3,3.7,1.1c0.3,0.4,0.7,0.7,1,1.1c-1.2,1.3-2.9,1.7-4.6,1.2c-1.5-0.5-2.2-1.7-2.3-3.2
			c-0.1-0.6-0.1-1.3,0-1.9c0.3-2,1.5-3.2,3.5-3.2c2,0,3.3,1,3.6,3.1c0.1,0.5,0.1,1.1,0.1,1.8C160.1,26.8,158.4,26.8,156.7,26.8z
			 M159.6,25.4c-0.1-1.1-0.6-1.6-1.5-1.6c-0.9,0-1.5,0.5-1.3,1.6C157.7,25.4,158.6,25.4,159.6,25.4z"/>
		<path class="st0" d="M184.8,26.9c-1.8,0-3.4,0-5,0c0.1,1.5,1.3,2.3,2.6,1.6c1-0.6,1.5-0.2,2,0.5c-0.6,1.2-2.3,1.8-4.1,1.4
			c-1.2-0.3-2.1-1-2.4-2.2c-0.2-1-0.3-2.1-0.2-3c0.3-2.2,1.7-3.2,3.8-3.2c1.9,0.1,3.1,1.3,3.3,3.4C184.9,25.8,184.8,26.3,184.8,26.9
			z M182.7,25.4c-0.1-1.1-0.6-1.7-1.6-1.6c-0.9,0.1-1.4,0.6-1.3,1.6C180.8,25.4,181.7,25.4,182.7,25.4z"/>
		<path class="st0" d="M108.3,45.1c0-2.2,0.7-3.5,2.3-3.9c2.6-0.7,4.6,0.7,4.7,3.4c0,0.5,0,1,0,1.5c-0.2,2.2-1.5,3.5-3.5,3.5
			c-2.1,0-3.3-1.2-3.5-3.4C108.3,45.7,108.3,45.4,108.3,45.1z M113.3,45.4c0-0.5,0.1-1-0.1-1.3c-0.4-0.5-0.9-1.1-1.4-1.1
			c-0.4,0-1.1,0.7-1.2,1.1c-0.2,0.8-0.1,1.6,0,2.4c0.1,0.4,0.7,0.9,1.1,0.9c0.5,0,1-0.4,1.3-0.8C113.3,46.3,113.2,45.8,113.3,45.4z"
			/>
		<path class="st0" d="M42.7,41.2c1.6-0.1,3.1-0.2,4.5-0.2c1.3,0,2.3,0.9,2.4,2.3c0.1,2,0,3.9,0,6c-0.7,0-1.3,0-2.1,0
			c0-1.5,0-3,0-4.5c0-0.9-0.2-1.8-1.3-1.9c-1.2-0.1-1.4,0.9-1.4,1.8c0,1.3,0,2.5,0,3.8c0,0.8-0.5,0.9-1,0.8c-0.4-0.1-1-0.5-1-0.8
			C42.7,46.1,42.7,43.7,42.7,41.2z"/>
		<path class="st0" d="M129.2,45.3c0,3.3-2.1,5-4.9,3.9c-0.1,0-0.2-0.1-0.3-0.1c-1.7-0.8-2.5-3.8-1.6-6.1c0.6-1.7,2.6-2.5,4.5-1.9
			C128.6,41.7,129.3,42.9,129.2,45.3z M127.2,45.4c0-0.4,0.1-0.8-0.1-1c-0.4-0.5-0.9-1-1.3-1.5c-0.5,0.5-1.2,0.9-1.3,1.4
			c-0.2,0.7-0.1,1.6,0.1,2.4c0.1,0.4,0.8,0.8,1.2,0.8c0.4,0,0.9-0.5,1.2-0.9C127.2,46.3,127.1,45.7,127.2,45.4z"/>
		<path class="st0" d="M94.4,25.9c0,3.4-1.5,4.9-4.2,4.5c-1.4-0.2-2.5-1.1-2.7-2.6c-0.1-1.1-0.1-2.3,0.1-3.5
			c0.3-1.6,1.6-2.4,3.4-2.4c1.7,0,3,1,3.3,2.6C94.4,25.1,94.4,25.7,94.4,25.9z M92.3,26.1c0-0.3,0-0.9-0.2-1.3
			c-0.2-0.4-0.8-0.8-1.2-0.8c-0.4,0-1.1,0.5-1.2,0.8c-0.2,0.9-0.2,1.9,0,2.8c0.1,0.4,0.8,0.9,1.2,0.9c0.4,0,0.9-0.6,1.2-1
			C92.3,27.2,92.2,26.7,92.3,26.1z"/>
		<path class="st0" d="M106.2,49.2c-2.1,0.3-2.1,0.3-2.1-1.6c0-1.1,0-2.2,0-3.4c0-0.9-0.5-1.4-1.3-1.4c-0.9,0-1.3,0.6-1.3,1.4
			c0,1.6,0,3.2,0,4.9c-0.7,0-1.3,0-2.1,0c0-2.7,0-5.3,0-8c1.5-0.1,3-0.2,4.4-0.2c1.3,0,2.2,0.9,2.3,2.2
			C106.3,45.2,106.2,47.2,106.2,49.2z"/>
		<path class="st0" d="M189.1,30.3c-0.8,0-1.4,0-2.1,0c0-2.6-0.1-5.1,0-7.6c0-1.1,1.1-0.6,1.7-0.6c0.4,0,0.9,0.2,1.3,0
			c2.2-0.6,3.8,0.5,3.9,2.8c0,1.7,0,3.3,0,5c0,0.1-0.1,0.2-0.2,0.4c-0.6,0-1.1,0-1.9,0c0-1.5,0-3.1,0-4.6c0-0.9-0.2-1.8-1.3-1.8
			c-1.2,0-1.4,0.9-1.4,1.9C189.1,27.3,189.1,28.8,189.1,30.3z"/>
		<path class="st0" d="M76.2,26.4c0,2.7-1.3,4.1-3.7,4c-1.6-0.1-2.8-1-3.1-2.6c-0.1-0.7-0.2-1.3-0.1-2c0.1-2.4,1.3-3.6,3.4-3.7
			c2.3,0,3.4,1.1,3.5,3.6C76.3,25.9,76.2,26.1,76.2,26.4z M71.3,26c0,0.5,0,0.8,0.1,1.1c0.1,0.8,0.4,1.5,1.4,1.5
			c1,0,1.4-0.6,1.4-1.4c0.1-0.7,0.1-1.5-0.1-2.2c-0.1-0.4-0.8-1-1.2-1c-0.5,0-1,0.5-1.4,1C71.3,25.2,71.3,25.7,71.3,26z"/>
		<path class="st0" d="M60.5,26.2c0-3,1.5-4.5,4.1-4.1c1.4,0.2,2.5,1.2,2.7,2.6c0.1,0.7,0.2,1.4,0.1,2.1c-0.2,2.3-1.4,3.5-3.6,3.5
			c-2.1,0-3.2-1.3-3.3-3.6C60.5,26.6,60.5,26.4,60.5,26.2z M65.5,26.3c-0.1-0.5,0-1-0.2-1.3c-0.4-0.5-0.9-1.1-1.4-1.1
			c-0.4,0-1.1,0.6-1.2,1.1c-0.2,0.8-0.2,1.7,0,2.5c0.1,0.4,0.8,0.9,1.2,1c0.4,0,1-0.4,1.3-0.8C65.4,27.3,65.4,26.7,65.5,26.3z"/>
		<path class="st0" d="M99,30.3c-0.8,0-1.4,0-2.2,0c0-1.7,0.1-3.3,0-4.9c0-0.5-0.4-1-0.6-1.6c-0.1-0.4-0.2-1.2-0.1-1.2
			c1.1-0.3,0.6-1.3,0.8-1.9c0.4-1.3,1.8-2.2,3.1-1.7c0.4,0.1,0.5,0.9,0.8,1.4c-1.8,0.5-1.8,0.5-1.6,1.8c0.4,0.1,0.8,0.1,1.3,0.2
			c0,0.5,0,0.9,0,1.4c-0.4,0.1-0.9,0.2-1.4,0.3C99,26.1,99,28.1,99,30.3z"/>
		<path class="st0" d="M88.3,42.1C87.7,43,87.1,43.8,86,43c-0.2-0.1-0.5-0.1-0.8,0c-1.1,0.3-1.6,1.8-1.1,3.4c0.3,1.1,1.1,1.5,2.2,1
			c1.2-0.6,1.3,0.5,1.9,0.9c-1.2,1.5-3.6,1.7-5.1,0.5c-1.7-1.4-1.9-5-0.3-6.6C84.1,40.6,86.7,40.6,88.3,42.1z"/>
		<path class="st0" d="M49.7,23.2c-0.5,0.4-0.9,0.8-1.3,1.1c0-0.1-0.1-0.3-0.1-0.4c-0.8,0.1-1.8,0.1-2.5,0.5
			c-0.8,0.5-0.8,2.9-0.1,3.5c0.4,0.4,1.2,0.7,1.6,0.5c1-0.4,1.6-0.1,2.1,0.8c-1.1,1.4-3.4,1.6-4.8,0.5c-1.7-1.3-1.9-4.8-0.4-6.5
			C45.5,21.7,48,21.7,49.7,23.2z"/>
		<path class="st0" d="M78.4,19.2c1.9-0.3,2-0.3,2,1.5c0,2.2,0,4.3,0,6.5c0,0.7,0,1.3,1,1.5c0.3,0.1,0.5,0.8,0.7,1.3
			c-2.4,0.6-3.6-0.2-3.6-2.3C78.4,24.8,78.4,22,78.4,19.2z"/>
		<path class="st0" d="M121,47.8c0,0.5,0,0.9,0,1.4c-2.4,0.5-3.5-0.3-3.6-2.6c0-2.3,0-4.7,0-7c0-1.7,0-1.7,2.1-1.4c0,2.5,0,5,0,7.6
			C119.5,47.4,119.5,47.4,121,47.8z"/>
		<path class="st0" d="M62.7,9.3c0.1,1,0.4,2,0.1,2.6c-0.3,0.5-1.4,0.7-2.2,0.9c-0.5,0.1-1.1,0-1.7,0c0-2.1,0-4.2,0-6.4
			c1.3,0.1,2.8-0.5,3.7,0.8C63,7.7,62.7,8.7,62.7,9.3z M60.5,12.4c1,0,2.1,0,2-1.3c0-1.3-1.2-1.2-2.1-1.3c-1.3-0.2-1.1,0.7-1.2,1.5
			C59.2,12.3,59.7,12.5,60.5,12.4z M59.4,9.6c1.1-0.3,2.1-0.5,2.9-0.9c0.2-0.1,0.1-1.2-0.1-1.3c-0.9-0.3-1.8-0.5-2.8-0.7
			C59.4,7.8,59.4,8.4,59.4,9.6z"/>
		<path class="st0" d="M52.5,8c0,1.6,0,3.1,0,4.7c-0.1,0-0.2,0-0.3,0c0-2,0-4,0-6c0.1-0.1,0.2-0.1,0.3-0.2c1.2,1.7,2.4,3.3,3.8,5.3
			c0-2,0-3.5,0-5.1c0.1,0,0.2,0,0.4,0c0,2,0,4,0,6c-0.1,0.1-0.2,0.1-0.2,0.2c-1.2-1.7-2.3-3.3-3.5-5C52.8,7.9,52.7,7.9,52.5,8z"/>
		<path class="st0" d="M137.9,6.9c-1,0-1.9,0-3,0c0,0.9,0,1.7,0,2.6c0.8,0.1,1.6,0.1,2.5,0.2c0,0.1,0,0.2,0,0.2
			c-0.8,0.1-1.6,0.1-2.5,0.2c0,0.8,0,1.4,0,2.3c1,0,2,0,3.1,0c0,0.1,0,0.2,0,0.3c-1.1,0-2.2,0-3.5,0c0-2,0-4,0-6.2
			c1.1,0,2.3,0,3.5,0C137.9,6.6,137.9,6.8,137.9,6.9z"/>
		<path class="st0" d="M103.7,6.6c0,2,0,4,0,6c-0.1,0-0.2,0-0.3,0c0-0.8-0.1-1.7-0.2-2.6c-1,0-2,0-3.2,0c0,0.9-0.1,1.7-0.1,2.6
			c-0.1,0-0.2,0-0.3,0c0-2,0-4,0-6c0.1,0,0.2,0,0.2,0c0.1,0.9,0.1,1.8,0.2,2.8c1,0,2,0,3.2,0c0-0.9,0-1.9,0-2.8
			C103.4,6.6,103.5,6.6,103.7,6.6z"/>
		<path class="st0" d="M109.3,7.2c-0.8-0.1-1.5-0.4-2.1-0.3c-0.5,0.1-1,0.7-1.2,1.2c-0.1,0.3,0.6,0.9,1,1.1c0.4,0.2,1,0.1,1.4,0.3
			c0.5,0.3,1.1,0.9,1.2,1.4c0.1,0.5-0.4,1.2-0.8,1.5c-1,0.7-2.3,0.4-3.3-0.6c0.8,0.2,1.5,0.5,2.1,0.4c0.6-0.1,1.4-0.6,1.6-1.1
			c0.3-0.9-0.5-1.2-1.3-1.3c-0.1,0-0.3,0-0.4-0.1c-0.9-0.1-1.9-0.3-1.9-1.4c0-0.6,0.4-1.4,0.9-1.8C107.2,6.2,108.3,6.3,109.3,7.2z"
			/>
		<path class="st0" d="M33.7,12c0.9,0.1,1.7,0.4,2.4,0.3c0.5-0.1,0.9-0.7,1.3-1.1c-0.4-0.4-0.7-0.9-1.2-1.2c-0.3-0.2-0.7-0.1-1-0.2
			c-0.9-0.2-1.6-0.7-1.5-1.7c0.1-1,0.8-1.5,1.7-1.5c0.7,0,1.3,0.2,2,0.4c0,0.1,0,0.2-0.1,0.4c-0.6-0.1-1.2-0.4-1.7-0.2
			c-0.5,0.1-0.9,0.7-1.4,1.1c0.4,0.4,0.7,0.9,1.2,1.2c0.3,0.2,1,0.1,1.3,0.3c0.5,0.4,1.1,0.9,1.2,1.4c0,0.5-0.4,1.3-0.9,1.6
			C36.1,13.2,34.7,12.9,33.7,12z"/>
		<path class="st0" d="M75.8,7.2c-0.6-0.1-1.3-0.4-1.8-0.2c-0.5,0.1-1.1,0.6-1.2,1.1c-0.1,0.3,0.5,0.9,0.9,1.2
			c0.4,0.2,1,0.1,1.4,0.3c0.5,0.3,1.2,0.8,1.2,1.3c0.1,0.5-0.4,1.3-0.9,1.6c-1,0.7-2.4,0.3-3.1-0.6c0.7,0.1,1.5,0.5,2.2,0.3
			c0.5-0.1,1-0.7,1.5-1.1c-0.4-0.4-0.8-0.9-1.3-1.3c-0.2-0.1-0.5-0.1-0.8-0.1c-1-0.2-1.8-0.7-1.7-1.9c0.2-1.1,1-1.5,2.1-1.5
			c0.5,0,1.1,0.3,1.6,0.4C75.9,7,75.8,7.1,75.8,7.2z"/>
		<path class="st0" d="M97.6,8.4c-0.3-0.4-0.4-0.7-0.6-0.8c-0.6-0.3-1.3-0.6-1.8-0.5c-0.5,0.1-0.9,0.8-1.1,1.3
			c-0.2,0.7-0.2,1.5,0,2.3c0.2,0.6,0.6,1.4,1.1,1.6c0.6,0.1,1.3-0.4,1.9-0.7c0.2-0.1,0.2-0.3,0.5-0.7c0,1.5-0.8,1.9-1.8,2
			c-1.1,0.1-2.2-0.6-2.3-1.6c-0.1-1-0.1-2.1,0-3.1c0.1-1,1.2-1.7,2.3-1.6C96.9,6.6,97.5,7.1,97.6,8.4z"/>
		<path class="st0" d="M87.7,9.4c0.1-0.5,0-1.1,0.2-1.6c0.3-1,1.1-1.4,2.1-1.4c1,0,1.8,0.5,1.9,1.6C92,8.9,92,9.9,92,10.8
			c-0.1,1.2-1,2-2.1,2c-1.2,0-2-0.8-2.1-2C87.7,10.3,87.7,9.9,87.7,9.4C87.7,9.4,87.7,9.4,87.7,9.4z M91.6,9.6c0-0.1,0-0.3,0-0.4
			c0-1.5-0.6-2.3-1.7-2.3c-1.1,0-1.6,0.8-1.7,2.3c0,0.1,0,0.3,0,0.4c0,1.9,0.5,2.7,1.6,2.7C91,12.4,91.6,11.6,91.6,9.6z"/>
		<path class="st0" d="M47.8,6.9c-1,0-2,0-3,0c0,0.9,0,1.7,0,2.6c0.8,0,1.7,0.1,2.5,0.1c0,0.1,0,0.2,0,0.2c-0.8,0.1-1.6,0.1-2.5,0.2
			c0,0.8,0,1.5,0,2.3c1.1,0,2.1,0,3,0c0,0.1,0,0.2,0,0.3c-1.1,0-2.2,0-3.5,0c0-2,0-4,0-6.2c1.2,0,2.3,0,3.5,0
			C47.8,6.7,47.8,6.8,47.8,6.9z"/>
		<path class="st0" d="M127.3,6.6c0,1.6,0.2,3.3-0.1,4.8c-0.1,0.5-1.3,1.3-1.9,1.3c-0.7,0-1.9-0.7-2-1.3c-0.3-1.6-0.1-3.2-0.1-4.8
			c0.1,0,0.2,0,0.4,0c0,1.2,0,2.4,0,3.6c0,1.4,0.5,2.1,1.7,2.1c1.1,0,1.7-0.6,1.7-2.1c0-1.2,0-2.4,0-3.6
			C127,6.6,127.1,6.6,127.3,6.6z"/>
		<path class="st0" d="M115.1,10.8c-0.2,1.4-0.9,1.9-1.9,2c-1.1,0.1-2-0.4-2.2-1.5c-0.2-1-0.2-2.1,0-3.2c0.1-1.1,1-1.6,2-1.6
			c1.1,0,1.8,0.5,2.3,1.9c-0.4-0.2-0.6-0.3-0.6-0.4c-0.5-0.9-1.2-1.4-2.1-0.9c-0.6,0.3-0.9,1.2-1.2,1.9c-0.2,0.5-0.2,1.2,0,1.7
			c0.2,0.6,0.7,1.4,1.2,1.6c0.6,0.1,1.3-0.4,1.9-0.7C114.7,11.4,114.8,11.2,115.1,10.8z"/>
		<path class="st0" d="M64.9,6.5c1.2,0,2.4,0,3.5,0c0,0.1,0,0.2,0,0.3c-1,0-2,0-3,0c0,1,0,1.7,0,2.7c0.9,0,1.7,0,2.5,0
			c0,0.1,0,0.2,0,0.3c-0.8,0.1-1.6,0.1-2.5,0.2c0,0.8,0,1.5,0,2.3c1,0,2,0,3,0c0,0.1,0,0.2,0,0.3c-1.1,0-2.3,0-3.5,0
			C64.9,10.7,64.9,8.7,64.9,6.5z"/>
		<path class="st0" d="M117.2,6.6c0,0.2,0.1,0.5,0.1,0.7c0.1,2.3,0.1,2.3,2.5,2.2c0.2,0,0.4,0,0.8-0.1c0.1-1,0.1-1.9,0.2-2.9
			c0.1,0,0.2,0,0.3,0c0,2,0,4,0,6.2c-0.2-0.3-0.3-0.5-0.3-0.6c-0.3-2.7-0.3-2.7-3.3-2.1c0,0.8-0.1,1.7-0.2,2.5c-0.1,0-0.2,0-0.3,0
			c0-2,0-4,0-6C117.1,6.6,117.1,6.6,117.2,6.6z"/>
		<path class="st0" d="M85.6,12.6c0-0.8-0.1-1.7-0.1-2.6c-1.1,0-2.1,0-3.2,0c0,0.9-0.1,1.7-0.1,2.6c-0.1,0-0.2,0-0.3,0c0-2,0-4,0-6
			c0.1,0,0.2,0,0.2,0c0,0.9,0.1,1.9,0.2,2.9c1.1,0,2.1,0,3.2,0c0-1,0.1-2,0.1-2.9c0.1,0,0.2,0,0.3,0c0,2,0,4,0,6
			C85.8,12.6,85.7,12.6,85.6,12.6z"/>
		<path class="st0" d="M38.9,6.6c1.3,0,2.6,0,3.9,0c0,0.1,0,0.1,0,0.2c-0.5,0.1-1,0.1-1.7,0.2c0,1.9,0,3.8,0,5.7c-0.1,0-0.3,0-0.4,0
			c0-1.9,0-3.7,0-5.7c-0.7-0.1-1.3-0.2-1.8-0.2C38.9,6.7,38.9,6.6,38.9,6.6z"/>
		<path class="st0" d="M129.4,12.7c0-2.1,0-4.1,0-6.1c0.1,0,0.2,0,0.3,0c0,1.8,0,3.7,0,5.6c1.2,0.1,2.2,0.1,3.2,0.2
			c0,0.1,0,0.2,0,0.3C131.8,12.7,130.7,12.7,129.4,12.7z"/>
		<path class="st0" d="M70.1,12.6c0-2,0-4,0-6c0.1,0,0.2,0,0.3,0c0,2,0,4,0,6C70.3,12.6,70.2,12.6,70.1,12.6z"/>
		<path class="st0" d="M50.1,6.6c0,2,0,4,0,6c-0.1,0-0.2,0-0.3,0c0-2,0-4,0-6C49.9,6.6,50,6.6,50.1,6.6z"/>
	</g>
</g>
</svg>
