<svg id="f405a6e5-dd14-4cd0-b383-e02b551ba515" data-name="Ebene 1" xmlns="http://www.w3.org/2000/svg" viewBox="0 0 200 58.33"><g id="aa21e836-9652-46fd-bcb5-3b51faab24fd" data-name="Cz4haD"><path d="M0,5.82H25V25.4H22.25V8.78H0Z" style="fill:#fff"/><path d="M0,11.21c2.93.07,2.93.07,2.93,3q0,5.86,0,11.73c0,2.17-.33,2,2,2q9.24,0,18.49,0H25v3H0Z" style="fill:#fff"/><path d="M133,52.52l-1.64-1c.54-.9.92-1.54,2.18-1s2.22-.24,2.21-1.92c-.35.11-.66.23-1,.31a2.7,2.7,0,0,1-3.62-2.51,15.63,15.63,0,0,1,0-2.82A2.72,2.72,0,0,1,134.6,41a7,7,0,0,0,1.88,0c1-.1,1.62,0,1.55,1.3-.09,1.88-.08,3.76,0,5.65.08,2.08-.56,3.68-2.61,4.49ZM136,45c-.2-.61-.22-1.38-.59-1.63a1.9,1.9,0,0,0-1.72,0c-.76.48-.7,3,.05,3.43a1.74,1.74,0,0,0,1.62-.08C135.72,46.32,135.77,45.57,136,45Z" style="fill:#fff"/><path d="M140.54,52.52l-.29-1.77c1.78-.65,2.11-1.36,1.52-3l-2.35-6.42c1.86-.53,2.1-.42,2.65,1.17a13.69,13.69,0,0,0,1.31,3c.33-1,.68-2,1-2.95.56-1.71.56-1.71,2.66-1.33-.55,1.51-1.09,3-1.64,4.5S144.3,48.6,143.83,50a3.32,3.32,0,0,1-2.21,2.48Z" style="fill:#fff"/><path d="M200,30.38a11.34,11.34,0,0,1-1.75-.07,2.06,2.06,0,0,1-1.79-2c-.05-.9,0-1.8,0-2.69,0-.66.29-1.45-.72-1.8-.17-.05-.23-1.13-.12-1.17,1.31-.5.65-1.67.92-2.5,1.82-.55,1.84-.53,2.22,2.12l1.27.06V23.9l-1.41.17c0,1.1,0,2.13,0,3.15s.32,1.54,1.42,1.27Z" style="fill:#fff"/><path d="M106.31,19.17a2.09,2.09,0,0,1,3,1.47c.53,1.42,1.3,2.74,2.11,4.38.81-1.65,1.61-3,2.14-4.42s1.4-1.85,2.9-1.44v11c-2.1.44-2.14.41-2.14-1.57a19.67,19.67,0,0,0-.28-4,29.38,29.38,0,0,1-1.44,2.58,1.8,1.8,0,0,1-1.18.78,1.76,1.76,0,0,1-1.18-.79,18.72,18.72,0,0,0-1.71-2.6v5.67h-2.19Z" style="fill:#fff"/><path d="M170.3,22.57a14.23,14.23,0,0,1,2.57-.55,2.43,2.43,0,0,1,2.65,2.2c.16,2,0,4,0,6.08h-2.07V26.74c0-.45,0-.9,0-1.35,0-.87-.41-1.52-1.38-1.47s-1.31.67-1.31,1.56v4.79h-2.14c0-1.66.09-3.32,0-4.95A2.07,2.07,0,0,0,167.44,24c-.3-.12-1.05.4-1.3.81a3.13,3.13,0,0,0-.18,1.58c0,1.29,0,2.58,0,3.93h-2.09c0-2.55,0-5.05,0-7.55,0-.25.72-.62,1.14-.67a11.84,11.84,0,0,1,2.66-.06A22.06,22.06,0,0,1,170.3,22.57Z" style="fill:#fff"/><path d="M8.76,14.47c2.38,0,4.71,0,7,0a1.06,1.06,0,0,1,.69.73c.05,2.28,0,4.57,0,6.94H8.76Z" style="fill:#fff"/><path d="M150.22,29.59c-3.13,1-4.64,0-4.7-3.26a11.84,11.84,0,0,1,.09-1.88A2.52,2.52,0,0,1,148.43,22c1.28,0,2.55.12,4,.18a86.64,86.64,0,0,1-.06,8.68c-.27,2.68-4,3.54-6.45,1.59.47-.87.9-1.44,2.14-.91S150.26,31.28,150.22,29.59Zm.24-3.51c-.19-.65-.18-1.42-.54-1.68a2,2,0,0,0-1.74-.13c-.73.39-.81,2.78-.09,3.32a1.86,1.86,0,0,0,1.71.11C150.2,27.43,150.26,26.63,150.46,26.08Z" style="fill:#fff"/><path d="M58.72,38.07V49.2c-1.52.09-3,.26-4.42.23a2.34,2.34,0,0,1-2.42-2.27,15.63,15.63,0,0,1-.06-3.35c.22-2.34,1.69-3.27,4-2.63.21.06.42.15.85.32V38.07Zm-4.87,7.14c0,.34.06.65.09,1,.09.82.5,1.5,1.34,1.3a2.17,2.17,0,0,0,1.22-1.28,3.09,3.09,0,0,0,0-2c-.19-.52-.8-1.2-1.26-1.22s-.92.7-1.27,1.18C53.8,44.44,53.89,44.88,53.85,45.21Z" style="fill:#fff"/><path d="M41.09,20.29c-.57,1-1.2,1.44-2.22.77a1.58,1.58,0,0,0-.79-.16c-1,0-2,0-2.22,1.18s.91,1.44,1.86,1.59c.31,0,.63.09.93.15,1.85.34,2.73,1.16,2.9,2.69a3.12,3.12,0,0,1-2.28,3.55,6,6,0,0,1-5.9-1c.62-.93,1.06-1.61,2.35-.9a4.16,4.16,0,0,0,2.6.15,1.67,1.67,0,0,0,1-1.28c0-.44-.62-1-1.11-1.24a9.64,9.64,0,0,0-2-.35,2.84,2.84,0,0,1-2.5-2.61,3.17,3.17,0,0,1,1.9-3.4A5.12,5.12,0,0,1,41.09,20.29Z" style="fill:#fff"/><path d="M92.18,38.09V41.3c.22.05.31.12.38.09,3-1,4.43.06,4.45,3.28,0,1.52,0,3,0,4.63H94.86c0-1.4,0-2.74,0-4.07,0-1,.17-2.3-1.36-2.27s-1.29,1.21-1.29,2.21v4c-2.06.46-2.15.39-2.15-1.48q0-4,0-8C90.06,37.93,90.06,37.93,92.18,38.09Z" style="fill:#fff"/><path d="M51.64,30.13V19.21h1.83l.18,3.4a11.85,11.85,0,0,1,1.14-.44,2.54,2.54,0,0,1,3.46,2.18,32.75,32.75,0,0,1,.06,5.24c-.09,1.27-1.11.57-2,.68,0-1.61,0-3.12,0-4.63a2.33,2.33,0,0,0-.6-1.53,1.3,1.3,0,0,0-2.1,1.08c-.09,1.21,0,2.42-.06,3.63C53.53,30.4,53.51,30.41,51.64,30.13Z" style="fill:#fff"/><path d="M123.23,25.48c0-1.82-1-2.12-3.15-1.12l-1-1.22a4.07,4.07,0,0,1,4.47-1c1.32.41,1.87,1.24,1.89,2.89s0,3.4,0,5.29c-1.7,0-3.32.11-4.91,0a2.22,2.22,0,0,1-2-2.48,2.26,2.26,0,0,1,2.14-2.35C121.53,25.41,122.34,25.48,123.23,25.48Zm0,1.44c-.91.1-2-.59-2.44.81-.06.21.68.91,1.08.94C123,28.75,123.5,28.17,123.22,26.92Z" style="fill:#fff"/><path d="M38.14,44.45c0-1.47-.85-2.17-2.06-1.54s-1.59,0-2.13-.72a4.21,4.21,0,0,1,4.65-1c1.44.49,1.8,1.6,1.77,3,0,1.65,0,3.3,0,5.21-1.63,0-3.15.08-4.65,0a2.48,2.48,0,0,1,0-4.93C36.54,44.39,37.34,44.45,38.14,44.45Zm0,1.42c-1,.09-2.1-.47-2.51.84-.06.2.64.89,1,.95C37.8,47.79,38.35,47.2,38.18,45.87Z" style="fill:#fff"/><path d="M67.36,40.05c-.77,0-1.35,0-1.92,0-.86.07-1-.36-1.06-1.13s.44-.94,1.11-.93H71c1.76,0,1.76,0,1.55,1.88a1.73,1.73,0,0,1-.47.15c-2.43.17-2.43.16-2.43,2.56v6.53c-2.17.57-2.3.46-2.3-1.58Z" style="fill:#fff"/><path d="M143.41,30.4c-1.56,0-3.08.06-4.59,0a2.28,2.28,0,0,1-2.17-2.58,2.19,2.19,0,0,1,2.15-2.3c.8-.07,1.61,0,2.39,0,.17-1.43-.66-2.15-1.94-1.57a1.44,1.44,0,0,1-2.17-.71,4.11,4.11,0,0,1,4.63-1c1.45.48,1.83,1.6,1.83,3,0,1.53,0,3.06,0,4.59A5.27,5.27,0,0,1,143.41,30.4Zm-2.1-3.49c-1,.09-2.09-.53-2.54.78-.07.2.63.92,1,1C140.85,28.79,141.5,28.28,141.31,26.91Z" style="fill:#fff"/><path d="M134.83,30.31h-2.16c0-1.56,0-3.07,0-4.59,0-1-.17-1.77-1.3-1.79s-1.38.81-1.39,1.76v4.6l-2.1.09c0-2.64,0-5.19.07-7.73,0-.22.94-.48,1.46-.57s1.23.07,1.81,0c1.85-.36,3.38.57,3.55,2.36.13,1.25,0,2.52.05,3.78C134.84,28.84,134.83,29.51,134.83,30.31Z" style="fill:#fff"/><path d="M80.27,45.86H75.21c.07,1.51,1.16,2.28,2.48,1.62,1.09-.55,1.63-.28,2.17.74a4.1,4.1,0,0,1-4.15,1.14,3,3,0,0,1-2.63-2.71A9,9,0,0,1,73,44.11,3.36,3.36,0,0,1,76.49,41a3.3,3.3,0,0,1,3.59,2.93C80.19,44.49,80.2,45.06,80.27,45.86ZM78,44.37c0-1-.48-1.57-1.42-1.58s-1.45.53-1.43,1.58Z" style="fill:#fff"/><path d="M156.75,26.84c.26,2,1.38,2.28,3.68,1.12l1,1.11a4.15,4.15,0,0,1-4.59,1.17,3.27,3.27,0,0,1-2.29-3.16,8.35,8.35,0,0,1,0-1.87,3.59,3.59,0,0,1,7.12-.16c.09.52.09,1.06.14,1.79Zm2.89-1.49c-.08-1.07-.59-1.62-1.53-1.57a1.26,1.26,0,0,0-1.34,1.57Z" style="fill:#fff"/><path d="M184.84,26.87h-5c.11,1.54,1.27,2.3,2.61,1.56,1-.57,1.45-.17,2,.54-.56,1.24-2.28,1.81-4.15,1.37a2.85,2.85,0,0,1-2.35-2.15,8.91,8.91,0,0,1-.21-3A3.33,3.33,0,0,1,181.49,22a3.4,3.4,0,0,1,3.34,3.38A14.54,14.54,0,0,1,184.84,26.87Zm-2.12-1.46c-.12-1.13-.64-1.69-1.58-1.63a1.32,1.32,0,0,0-1.32,1.63Z" style="fill:#fff"/><path d="M108.33,45.11c0-2.25.75-3.5,2.31-4a3.47,3.47,0,0,1,4.75,3.38,12.19,12.19,0,0,1,0,1.48,3.38,3.38,0,0,1-3.51,3.46,3.34,3.34,0,0,1-3.53-3.43C108.31,45.74,108.33,45.42,108.33,45.11Zm5,.32c0-.53.08-1-.12-1.31-.36-.48-.89-1.08-1.4-1.12s-1.05.66-1.18,1.14a5.09,5.09,0,0,0,0,2.39,1.52,1.52,0,0,0,1.1.92,2.11,2.11,0,0,0,1.33-.84C113.3,46.3,113.23,45.75,113.28,45.43Z" style="fill:#fff"/><path d="M42.75,41.23c1.62-.08,3-.22,4.47-.2a2.37,2.37,0,0,1,2.43,2.27c.11,2,0,3.93,0,6H47.6c0-1.55,0-3,0-4.49,0-.94-.19-1.81-1.29-1.86s-1.44.86-1.44,1.85c0,1.26,0,2.51,0,3.77,0,.8-.49,1-1,.79-.4-.12-1-.5-1-.79C42.71,46.14,42.75,43.71,42.75,41.23Z" style="fill:#fff"/><path d="M129.25,45.3c0,3.26-2.14,5-4.89,3.93l-.25-.1c-1.73-.79-2.52-3.76-1.62-6.09A3.58,3.58,0,0,1,127,41.17C128.6,41.67,129.26,42.88,129.25,45.3Zm-2.08.07c0-.39.06-.78-.09-1a15.13,15.13,0,0,0-1.3-1.48c-.46.46-1.18.86-1.33,1.4a4.47,4.47,0,0,0,.14,2.37,1.51,1.51,0,0,0,1.18.8A1.83,1.83,0,0,0,127,46.6C127.18,46.27,127.11,45.74,127.17,45.37Z" style="fill:#fff"/><path d="M94.41,25.88c0,3.37-1.54,4.92-4.18,4.53a3,3,0,0,1-2.72-2.58,12.22,12.22,0,0,1,.06-3.47C87.83,22.81,89.21,22,91,22a3.19,3.19,0,0,1,3.3,2.6A9.57,9.57,0,0,1,94.41,25.88Zm-2.11.23a3.37,3.37,0,0,0-.21-1.3A1.74,1.74,0,0,0,90.9,24a1.46,1.46,0,0,0-1.17.81,7.38,7.38,0,0,0,0,2.77,1.56,1.56,0,0,0,1.25.89c.42,0,.91-.57,1.2-1S92.24,26.66,92.3,26.11Z" style="fill:#fff"/><path d="M106.23,49.25c-2.06.26-2.06.26-2.07-1.58,0-1.12,0-2.24,0-3.36a1.24,1.24,0,0,0-1.33-1.38c-.87,0-1.29.55-1.29,1.4,0,1.61,0,3.22,0,4.93H99.47v-8c1.51-.07,3-.23,4.43-.18a2.23,2.23,0,0,1,2.3,2.22C106.31,45.23,106.23,47.2,106.23,49.25Z" style="fill:#fff"/><path d="M189.06,30.3h-2.14c0-2.57-.07-5.08,0-7.58.05-1.15,1.1-.56,1.72-.63.42-.05.9.16,1.29,0,2.17-.64,3.82.5,3.86,2.76,0,1.67,0,3.33,0,5a1.45,1.45,0,0,1-.16.43h-1.9V25.74c0-.93-.19-1.8-1.32-1.82s-1.36.93-1.36,1.9C189.07,27.29,189.06,28.77,189.06,30.3Z" style="fill:#fff"/><path d="M76.25,26.36c0,2.7-1.3,4.1-3.71,4a3.06,3.06,0,0,1-3.09-2.63,9.67,9.67,0,0,1-.14-2c.07-2.35,1.27-3.63,3.4-3.66s3.41,1.15,3.54,3.62C76.26,25.91,76.25,26.14,76.25,26.36Zm-5-.37c0,.48,0,.79.06,1.1.12.83.43,1.45,1.41,1.46s1.37-.62,1.43-1.43a5.78,5.78,0,0,0-.14-2.24,1.62,1.62,0,0,0-1.18-1,2.28,2.28,0,0,0-1.39,1C71.26,25.16,71.34,25.71,71.3,26Z" style="fill:#fff"/><path d="M60.52,26.23c0-3,1.45-4.5,4.09-4.13a3.06,3.06,0,0,1,2.69,2.63,11.07,11.07,0,0,1,.1,2.15c-.16,2.34-1.42,3.54-3.58,3.5s-3.2-1.29-3.3-3.61Zm5,.06c-.06-.49,0-1-.19-1.26-.37-.48-.91-1.07-1.41-1.11s-1.11.63-1.22,1.09a5.32,5.32,0,0,0,0,2.51,1.65,1.65,0,0,0,1.2,1,2,2,0,0,0,1.31-.85A3.44,3.44,0,0,0,65.48,26.29Z" style="fill:#fff"/><path d="M99,30.33H96.77c0-1.67,0-3.31,0-4.95,0-.52-.44-1-.59-1.55A3.25,3.25,0,0,1,96,22.6c1.06-.34.64-1.27.84-1.93A2.44,2.44,0,0,1,99.92,19c.37.14.51.89.77,1.4-1.76.55-1.76.55-1.64,1.83l1.34.18v1.43L99,24.09Z" style="fill:#fff"/><path d="M88.26,42.12c-.6.86-1.11,1.66-2.27.88a1.09,1.09,0,0,0-.78,0c-1.07.25-1.57,1.78-1.11,3.35a1.45,1.45,0,0,0,2.21,1c1.18-.59,1.32.5,1.93.86a3.64,3.64,0,0,1-5,.5c-1.68-1.39-1.86-5-.33-6.65A3.92,3.92,0,0,1,88.26,42.12Z" style="fill:#fff"/><path d="M49.71,23.24l-1.28,1.11-.11-.43a7.37,7.37,0,0,0-2.46.49c-.75.46-.77,2.89-.09,3.51a2,2,0,0,0,1.63.54,1.48,1.48,0,0,1,2.1.76,3.56,3.56,0,0,1-4.79.45c-1.69-1.34-1.92-4.83-.43-6.52A3.84,3.84,0,0,1,49.71,23.24Z" style="fill:#fff"/><path d="M78.43,19.24c1.94-.3,2-.26,2,1.5,0,2.15,0,4.31,0,6.46,0,.69,0,1.31.95,1.49.29.06.45.83.7,1.32-2.41.64-3.63-.21-3.65-2.35C78.41,24.84,78.43,22,78.43,19.24Z" style="fill:#fff"/><path d="M121,47.78v1.39c-2.4.55-3.53-.28-3.57-2.6s0-4.66,0-7c0-1.71,0-1.73,2.06-1.41v7.58C119.51,47.35,119.52,47.35,121,47.78Z" style="fill:#fff"/><path d="M62.72,9.3c.06,1,.42,2,.07,2.61s-1.39.69-2.17.88a7.91,7.91,0,0,1-1.7,0V6.44c1.32.13,2.81-.53,3.74.78C63,7.74,62.72,8.73,62.72,9.3Zm-2.21,3c1,0,2.08,0,2.05-1.34s-1.17-1.19-2.1-1.29c-1.32-.15-1.12.7-1.19,1.52C59.18,12.28,59.66,12.51,60.51,12.35ZM59.37,9.59a21.85,21.85,0,0,0,2.9-.9,1.8,1.8,0,0,0-.06-1.29,21.9,21.9,0,0,0-2.84-.69Z" style="fill:#fff"/><path d="M52.53,8v4.68h-.3v-6l.26-.2,3.82,5.33V6.65h.36v6l-.25.21L53,7.86Z" style="fill:#fff"/><path d="M137.94,6.87h-3v2.6l2.46.18v.23l-2.5.17v2.33h3.05v.34h-3.5V6.53h3.47Z" style="fill:#fff"/><path d="M103.65,6.63v6l-.31,0-.16-2.62H100l-.14,2.58h-.29v-6l.25,0,.2,2.85h3.2V6.61Z" style="fill:#fff"/><path d="M109.25,7.22A6.4,6.4,0,0,0,107.14,7,1.88,1.88,0,0,0,106,8.12c-.07.29.56.88,1,1.13s1,.08,1.42.34a2.66,2.66,0,0,1,1.19,1.4,2,2,0,0,1-.84,1.49,2.6,2.6,0,0,1-3.33-.58,5.86,5.86,0,0,0,2.08.39,2.25,2.25,0,0,0,1.57-1.07c.28-.87-.52-1.2-1.3-1.31l-.4-.06c-.86-.15-1.86-.3-1.88-1.36a2.33,2.33,0,0,1,.86-1.76A2.24,2.24,0,0,1,109.25,7.22Z" style="fill:#fff"/><path d="M33.75,12a9,9,0,0,0,2.44.32c.47-.07.85-.72,1.27-1.11A9,9,0,0,0,36.27,10c-.26-.19-.69-.12-1.05-.2-.94-.19-1.58-.67-1.47-1.74a1.61,1.61,0,0,1,1.72-1.54,9.86,9.86,0,0,1,2,.36l-.07.36A4.28,4.28,0,0,0,35.65,7c-.53.15-.95.72-1.42,1.1a6.81,6.81,0,0,0,1.16,1.23c.34.22,1,.06,1.28.3.5.35,1.14.87,1.19,1.37A2.11,2.11,0,0,1,37,12.53,2.65,2.65,0,0,1,33.75,12Z" style="fill:#fff"/><path d="M75.78,7.17A4.94,4.94,0,0,0,74,7a1.91,1.91,0,0,0-1.22,1.11c-.08.29.52.91.94,1.18s1,.1,1.42.34,1.17.85,1.22,1.35a2.09,2.09,0,0,1-.89,1.58,2.42,2.42,0,0,1-3.15-.57,6.88,6.88,0,0,0,2.15.34c.53-.08,1-.69,1.46-1.07a17,17,0,0,0-1.27-1.28c-.18-.15-.52-.08-.79-.13-1-.2-1.83-.68-1.65-1.87s1-1.53,2.07-1.47a9.14,9.14,0,0,1,1.6.4Z" style="fill:#fff"/><path d="M97.56,8.39c-.29-.4-.41-.74-.64-.84A3.39,3.39,0,0,0,95.14,7a2,2,0,0,0-1.08,1.33,4.55,4.55,0,0,0,0,2.26c.16.6.64,1.45,1.12,1.56s1.3-.4,1.95-.69c.16-.07.24-.31.53-.69a1.78,1.78,0,0,1-1.8,2,2,2,0,0,1-2.28-1.61,14.41,14.41,0,0,1,0-3.08,2,2,0,0,1,2.28-1.63C96.88,6.55,97.46,7.12,97.56,8.39Z" style="fill:#fff"/><path d="M87.7,9.44a7.69,7.69,0,0,1,.17-1.6A1.92,1.92,0,0,1,90,6.47,1.85,1.85,0,0,1,91.9,8,12.64,12.64,0,0,1,92,10.84a2,2,0,0,1-2.12,2,2.07,2.07,0,0,1-2.09-2,12.14,12.14,0,0,1,0-1.35Zm3.85.14c0-.13,0-.26,0-.4,0-1.51-.63-2.29-1.69-2.28s-1.63.77-1.68,2.31c0,.14,0,.27,0,.41,0,1.91.46,2.69,1.63,2.72S91.55,11.57,91.55,9.58Z" style="fill:#fff"/><path d="M47.85,6.88h-3V9.5l2.5.11,0,.23-2.53.22V12.4h3v.3H44.37V6.54h3.47Z" style="fill:#fff"/><path d="M127.26,6.64a29.76,29.76,0,0,1-.09,4.82c-.09.54-1.25,1.28-1.9,1.26s-1.93-.72-2-1.28a27.62,27.62,0,0,1-.1-4.82h.37c0,1.2,0,2.4,0,3.6,0,1.44.54,2.1,1.66,2.11s1.69-.61,1.72-2.06c0-1.21,0-2.43,0-3.64Z" style="fill:#fff"/><path d="M115.13,10.8c-.15,1.43-.88,1.93-1.87,2a1.89,1.89,0,0,1-2.23-1.5,11.07,11.07,0,0,1,0-3.2,1.88,1.88,0,0,1,2-1.62c1.1,0,1.8.51,2.3,1.89-.42-.25-.6-.29-.65-.39-.45-.87-1.24-1.4-2.07-.93a3.58,3.58,0,0,0-1.17,1.88,2.67,2.67,0,0,0,0,1.72c.23.61.67,1.44,1.16,1.56s1.3-.42,1.94-.71C114.71,11.42,114.81,11.19,115.13,10.8Z" style="fill:#fff"/><path d="M64.87,6.53h3.48v.3h-3V9.52h2.51l0,.34L65.34,10v2.34h3v.31h-3.5Z" style="fill:#fff"/><path d="M117.22,6.61a3.54,3.54,0,0,1,.12.7c.1,2.32.09,2.32,2.47,2.25l.81-.07.15-2.86H121v6.24c-.18-.33-.3-.46-.31-.59-.27-2.65-.32-2.69-3.31-2.15l-.15,2.52H117v-6Z" style="fill:#fff"/><path d="M85.64,12.64l-.12-2.59H82.29l-.13,2.59h-.27V6.59l.25,0,.15,2.91h3.22l.14-2.89.3,0v6Z" style="fill:#fff"/><path d="M38.94,6.56h3.87v.23L41.13,7v5.67h-.4V7l-1.81-.22Z" style="fill:#fff"/><path d="M129.41,12.72V6.64h.3v5.65l3.21.16,0,.27Z" style="fill:#fff"/><path d="M70.15,12.64v-6h.25v6Z" style="fill:#fff"/><path d="M50.09,6.62v6h-.26v-6Z" style="fill:#fff"/></g></svg>