<svg xmlns="http://www.w3.org/2000/svg" xmlns:xlink="http://www.w3.org/1999/xlink" width="480" height="573.29" viewBox="0 0 480 573.29">
  <defs>
    <linearGradient id="linear-gradient" x1="0.5" x2="1.072" y2="1.542" gradientUnits="objectBoundingBox">
      <stop offset="0" stop-color="#7a8d96"/>
      <stop offset="1" stop-color="#ba2b2b"/>
    </linearGradient>
    <clipPath id="clip-path">
      <path id="Hintergrundfläche" d="M5855.094,1050.25l479.885.012V1570.79l-480,52.75Z" transform="translate(-5754.979 10569.234)" fill="#607886"/>
    </clipPath>
    <clipPath id="clip-path-2">
      <path id="Hintergrundfläche-2" data-name="Hintergrundfläche" d="M6334.978,1029.182h-480V2226.963h480Z" transform="translate(-5854.978 -1029.182)" fill="url(#linear-gradient)"/>
    </clipPath>
  </defs>
  <g id="Mask_Group_54" data-name="Mask Group 54" transform="translate(-100 -11619.485)" clip-path="url(#clip-path)">
    <g id="Group_3340" data-name="Group 3340" transform="translate(100 11613.927)">
      <path id="Hintergrundfläche-3" data-name="Hintergrundfläche" d="M6334.978,1050.182h-480v801.574h480Z" transform="translate(-5854.978 -1044.643)" fill="none"/>
      <g id="Mask_Group_53" data-name="Mask Group 53" transform="translate(0 0)" clip-path="url(#clip-path-2)">
        <g id="Group_3339" data-name="Group 3339" transform="translate(-140.885 -41.736)">
          <g id="Dreieck" transform="matrix(-0.087, -0.996, 0.996, -0.087, 458.925, 500.279)" fill="#fff" opacity="0.036">
            <path d="M 424.7278137207031 197.5812225341797 L 1.268272042274475 192.9359130859375 L 210.5601806640625 0.6790664792060852 L 424.7278137207031 197.5812225341797 Z" stroke="none"/>
            <path d="M 210.5600433349609 1.358139038085938 L 2.536590576171875 192.4497528076172 L 423.4296569824219 197.0669250488281 L 210.5600433349609 1.358139038085938 M 210.5603179931641 0 L 426.0259094238281 198.0954742431641 L 0 193.4219970703125 L 210.5603179931641 0 Z" stroke="none" fill="#707070"/>
          </g>
          <g id="Dreieck-2" data-name="Dreieck" transform="translate(456.446 0) rotate(20)" fill="#fff" opacity="0.036">
            <path d="M 373.8960266113281 208.0589752197266 L 1.114187359809875 201.3866882324219 L 184.0034790039062 0.7412343621253967 L 373.8960266113281 208.0589752197266 Z" stroke="none"/>
            <path d="M 184.0043640136719 1.48248291015625 L 2.2283935546875 200.9065246582031 L 372.740966796875 207.5381927490234 L 184.0043640136719 1.48248291015625 M 184.0025634765625 0 L 375.051025390625 208.5797119140625 L 0 201.8668060302734 L 184.0025634765625 0 Z" stroke="none" fill="#707070"/>
          </g>
          <g id="Dreieck-3" data-name="Dreieck" transform="translate(87.834 225.234) rotate(20)" fill="#fff" opacity="0.036">
            <path d="M 373.8960266113281 208.0589752197266 L 1.114187359809875 201.3866882324219 L 184.0034790039062 0.7412343621253967 L 373.8960266113281 208.0589752197266 Z" stroke="none"/>
            <path d="M 184.0043640136719 1.48248291015625 L 2.2283935546875 200.9065246582031 L 372.740966796875 207.5381927490234 L 184.0043640136719 1.48248291015625 M 184.0025634765625 0 L 375.051025390625 208.5797119140625 L 0 201.8668060302734 L 184.0025634765625 0 Z" stroke="none" fill="#707070"/>
          </g>
          <g id="Dreieck-4" data-name="Dreieck" transform="matrix(0.788, -0.616, 0.616, 0.788, 0, 385.998)" fill="#fff" opacity="0.036">
            <path d="M 1.188697457313538 206.885498046875 L 195.5791015625 0.7299570441246033 L 379.3984985351562 196.8139343261719 L 1.188697457313538 206.885498046875 Z" stroke="none"/>
            <path d="M 195.5780487060547 1.459884643554688 L 2.37744140625 206.3536376953125 L 378.2723693847656 196.3437194824219 L 195.5780487060547 1.459884643554688 M 195.5801696777344 0 L 380.5246276855469 197.2841033935547 L 0 207.4173126220703 L 195.5801696777344 0 Z" stroke="none" fill="#707070"/>
          </g>
          <g id="Dreieck-5" data-name="Dreieck" transform="matrix(-0.087, -0.996, 0.996, -0.087, 458.925, 889.831)" fill="#fff" opacity="0.036">
            <path d="M 424.7278137207031 197.5812225341797 L 1.268272042274475 192.9359130859375 L 210.5601806640625 0.6790664792060852 L 424.7278137207031 197.5812225341797 Z" stroke="none"/>
            <path d="M 210.5600433349609 1.358139038085938 L 2.536590576171875 192.4497528076172 L 423.4296569824219 197.0669250488281 L 210.5600433349609 1.358139038085938 M 210.5603179931641 0 L 426.0259094238281 198.0954742431641 L 0 193.4219970703125 L 210.5603179931641 0 Z" stroke="none" fill="#707070"/>
          </g>
          <g id="Dreieck-6" data-name="Dreieck" transform="translate(456.446 389.551) rotate(20)" fill="#fff" opacity="0.036">
            <path d="M 373.8960266113281 208.0589752197266 L 1.114187359809875 201.3866882324219 L 184.0034790039062 0.7412343621253967 L 373.8960266113281 208.0589752197266 Z" stroke="none"/>
            <path d="M 184.0043640136719 1.48248291015625 L 2.2283935546875 200.9065246582031 L 372.740966796875 207.5381927490234 L 184.0043640136719 1.48248291015625 M 184.0025634765625 0 L 375.051025390625 208.5797119140625 L 0 201.8668060302734 L 184.0025634765625 0 Z" stroke="none" fill="#707070"/>
          </g>
          <g id="Dreieck-7" data-name="Dreieck" transform="translate(87.834 614.785) rotate(20)" fill="#fff" opacity="0.036">
            <path d="M 373.8960266113281 208.0589752197266 L 1.114187359809875 201.3866882324219 L 184.0034790039062 0.7412343621253967 L 373.8960266113281 208.0589752197266 Z" stroke="none"/>
            <path d="M 184.0043640136719 1.48248291015625 L 2.2283935546875 200.9065246582031 L 372.740966796875 207.5381927490234 L 184.0043640136719 1.48248291015625 M 184.0025634765625 0 L 375.051025390625 208.5797119140625 L 0 201.8668060302734 L 184.0025634765625 0 Z" stroke="none" fill="#707070"/>
          </g>
          <g id="Dreieck-8" data-name="Dreieck" transform="matrix(0.788, -0.616, 0.616, 0.788, 0, 775.549)" fill="#fff" opacity="0.036">
            <path d="M 1.188697457313538 206.885498046875 L 195.5791015625 0.7299570441246033 L 379.3984985351562 196.8139343261719 L 1.188697457313538 206.885498046875 Z" stroke="none"/>
            <path d="M 195.5780487060547 1.459884643554688 L 2.37744140625 206.3536376953125 L 378.2723693847656 196.3437194824219 L 195.5780487060547 1.459884643554688 M 195.5801696777344 0 L 380.5246276855469 197.2841033935547 L 0 207.4173126220703 L 195.5801696777344 0 Z" stroke="none" fill="#707070"/>
          </g>
          <g id="Dreieck-9" data-name="Dreieck" transform="translate(387.269 817.312) rotate(20)" fill="#fff" opacity="0.036">
            <path d="M 373.8960266113281 208.0589752197266 L 1.114187359809875 201.3866882324219 L 184.0034790039062 0.7412343621253967 L 373.8960266113281 208.0589752197266 Z" stroke="none"/>
            <path d="M 184.0043640136719 1.48248291015625 L 2.2283935546875 200.9065246582031 L 372.740966796875 207.5381927490234 L 184.0043640136719 1.48248291015625 M 184.0025634765625 0 L 375.051025390625 208.5797119140625 L 0 201.8668060302734 L 184.0025634765625 0 Z" stroke="none" fill="#707070"/>
          </g>
          <g id="Dreieck-10" data-name="Dreieck" transform="matrix(0.788, -0.616, 0.616, 0.788, 299.435, 978.076)" fill="#fff" opacity="0.036">
            <path d="M 1.188697457313538 206.885498046875 L 195.5791015625 0.7299570441246033 L 379.3984985351562 196.8139343261719 L 1.188697457313538 206.885498046875 Z" stroke="none"/>
            <path d="M 195.5780487060547 1.459884643554688 L 2.37744140625 206.3536376953125 L 378.2723693847656 196.3437194824219 L 195.5780487060547 1.459884643554688 M 195.5801696777344 0 L 380.5246276855469 197.2841033935547 L 0 207.4173126220703 L 195.5801696777344 0 Z" stroke="none" fill="#707070"/>
          </g>
        </g>
      </g>
    </g>
  </g>
</svg>
