<svg xmlns="http://www.w3.org/2000/svg" xmlns:xlink="http://www.w3.org/1999/xlink" viewBox="0 0 1820 752.877">
  <defs>
    <linearGradient id="linear-gradient" x1="0.5" x2="1.072" y2="1.542" gradientUnits="objectBoundingBox">
      <stop offset="0" stop-color="#7a8d96"/>
      <stop offset="1" stop-color="#ba2b2b"/>
    </linearGradient>
    <clipPath id="clip-path">
      <path id="Hintergrundfläche" d="M5855.416,1195.25l1819.563-1.955v552.877l-1820,200Z" transform="translate(-5754.979 10569.234)" fill="#607886"/>
    </clipPath>
    <clipPath id="clip-path-2">
      <path id="Hintergrundfläche-2" data-name="Hintergrundfläche" d="M7674.979,1029.182h-1820V5570.768h1820Z" transform="translate(-5854.979 -1029.182)" fill="url(#linear-gradient)"/>
    </clipPath>
  </defs>
  <g id="Mask_Group_24" data-name="Mask Group 24" transform="translate(-100 -11762.53)" clip-path="url(#clip-path)">
    <g id="Group_2683" data-name="Group 2683" transform="translate(99.999 11598.41)">
      <path id="Hintergrundfläche-3" data-name="Hintergrundfläche" d="M7674.979,990.182h-1820V1995.333h1820Z" transform="translate(-5854.978 -1029.182)" fill="none"/>
      <g id="Mask_Group_20" data-name="Mask Group 20" transform="translate(0.001)" clip-path="url(#clip-path-2)">
        <g id="Group_2668" data-name="Group 2668" transform="translate(-506.474 -174.778)">
          <g id="Dreieck" transform="matrix(-0.087, -0.996, 0.996, -0.087, 1709.002, 1917.313)" fill="#fff" opacity="0.036">
            <path d="M 1617.635986328125 754.2951049804688 L 4.854056835174561 736.6028442382812 L 801.9602661132812 4.376413822174072 L 1617.635986328125 754.2951049804688 Z" stroke="none"/>
            <path d="M 801.9601440429688 5.05560302734375 L 6.1226806640625 736.11669921875 L 1616.337646484375 753.7808227539062 L 801.9601440429688 5.05560302734375 M 801.9603881835938 3.6973876953125 L 1618.933959960938 754.8094482421875 L 3.5860595703125 737.0889892578125 L 801.9603881835938 3.6973876953125 Z" stroke="none" fill="#707070"/>
          </g>
          <g id="Dreieck-2" data-name="Dreieck" transform="translate(1694.775 0) rotate(20)" fill="#fff" opacity="0.036">
            <path d="M 1434.271118164062 803.0704345703125 L 14.47205352783203 777.657958984375 L 711.0350952148438 13.46772480010986 L 1434.271118164062 803.0704345703125 Z" stroke="none"/>
            <path d="M 711.0359497070312 14.20904541015625 L 15.586181640625 777.1779174804688 L 1433.116088867188 802.5497436523438 L 711.0359497070312 14.20904541015625 M 711.0341796875 12.72650146484375 L 1435.426147460938 803.5912475585938 L 13.3577880859375 778.1381225585938 L 711.0341796875 12.72650146484375 Z" stroke="none" fill="#707070"/>
          </g>
          <g id="Dreieck-3" data-name="Dreieck" transform="translate(297.122 854.012) rotate(20)" fill="#fff" opacity="0.036">
            <path d="M 1434.271118164062 803.0704345703125 L 14.47205352783203 777.657958984375 L 711.0350952148438 13.46772480010986 L 1434.271118164062 803.0704345703125 Z" stroke="none"/>
            <path d="M 711.0359497070312 14.20904541015625 L 15.586181640625 777.1779174804688 L 1433.116088867188 802.5497436523438 L 711.0359497070312 14.20904541015625 M 711.0341796875 12.72650146484375 L 1435.426147460938 803.5912475585938 L 13.3577880859375 778.1381225585938 L 711.0341796875 12.72650146484375 Z" stroke="none" fill="#707070"/>
          </g>
          <g id="Dreieck-4" data-name="Dreieck" transform="matrix(0.788, -0.616, 0.616, 0.788, 0, 1482.826)" fill="#fff" opacity="0.036">
            <path d="M -18.9747257232666 766.7147216796875 L 721.4102172851562 -18.48091316223145 L 1421.53271484375 728.3545532226562 L -18.9747257232666 766.7147216796875 Z" stroke="none"/>
            <path d="M 721.4089965820312 -17.75091552734375 L -17.7862548828125 766.1827392578125 L 1420.406494140625 727.8843994140625 L 721.4089965820312 -17.75091552734375 M 721.4111938476562 -19.21087646484375 L 1422.658813476562 728.82470703125 L -20.1636962890625 767.246337890625 L 721.4111938476562 -19.21087646484375 Z" stroke="none" fill="#707070"/>
          </g>
          <g id="Dreieck-5" data-name="Dreieck" transform="matrix(-0.087, -0.996, 0.996, -0.087, 1709.002, 3394.363)" fill="#fff" opacity="0.036">
            <path d="M 1617.635986328125 754.2951049804688 L 4.854056835174561 736.6028442382812 L 801.9602661132812 4.376413822174072 L 1617.635986328125 754.2951049804688 Z" stroke="none"/>
            <path d="M 801.9601440429688 5.05560302734375 L 6.1226806640625 736.11669921875 L 1616.337646484375 753.7808227539062 L 801.9601440429688 5.05560302734375 M 801.9603881835938 3.6973876953125 L 1618.933959960938 754.8094482421875 L 3.5860595703125 737.0889892578125 L 801.9603881835938 3.6973876953125 Z" stroke="none" fill="#707070"/>
          </g>
          <g id="Dreieck-6" data-name="Dreieck" transform="translate(1694.775 1477.049) rotate(20)" fill="#fff" opacity="0.036">
            <path d="M 1434.271118164062 803.0704345703125 L 14.47205352783203 777.657958984375 L 711.0350952148438 13.46772480010986 L 1434.271118164062 803.0704345703125 Z" stroke="none"/>
            <path d="M 711.0359497070312 14.20904541015625 L 15.586181640625 777.1779174804688 L 1433.116088867188 802.5497436523438 L 711.0359497070312 14.20904541015625 M 711.0341796875 12.72650146484375 L 1435.426147460938 803.5912475585938 L 13.3577880859375 778.1381225585938 L 711.0341796875 12.72650146484375 Z" stroke="none" fill="#707070"/>
          </g>
          <g id="Dreieck-7" data-name="Dreieck" transform="translate(297.122 2331.062) rotate(20)" fill="#fff" opacity="0.036">
            <path d="M 1434.271118164062 803.0704345703125 L 14.47205352783203 777.657958984375 L 711.0350952148438 13.46772480010986 L 1434.271118164062 803.0704345703125 Z" stroke="none"/>
            <path d="M 711.0359497070312 14.20904541015625 L 15.586181640625 777.1779174804688 L 1433.116088867188 802.5497436523438 L 711.0359497070312 14.20904541015625 M 711.0341796875 12.72650146484375 L 1435.426147460938 803.5912475585938 L 13.3577880859375 778.1381225585938 L 711.0341796875 12.72650146484375 Z" stroke="none" fill="#707070"/>
          </g>
          <g id="Dreieck-8" data-name="Dreieck" transform="matrix(0.788, -0.616, 0.616, 0.788, 0, 2959.875)" fill="#fff" opacity="0.036">
            <path d="M -18.9747257232666 766.7147216796875 L 721.4102172851562 -18.48091316223145 L 1421.53271484375 728.3545532226562 L -18.9747257232666 766.7147216796875 Z" stroke="none"/>
            <path d="M 721.4089965820312 -17.75091552734375 L -17.7862548828125 766.1827392578125 L 1420.406494140625 727.8843994140625 L 721.4089965820312 -17.75091552734375 M 721.4111938476562 -19.21087646484375 L 1422.658813476562 728.82470703125 L -20.1636962890625 767.246337890625 L 721.4111938476562 -19.21087646484375 Z" stroke="none" fill="#707070"/>
          </g>
          <g id="Dreieck-9" data-name="Dreieck" transform="translate(1432.479 3098.975) rotate(20)" fill="#fff" opacity="0.036">
            <path d="M 1434.271118164062 803.0704345703125 L 14.47205352783203 777.657958984375 L 711.0350952148438 13.46772480010986 L 1434.271118164062 803.0704345703125 Z" stroke="none"/>
            <path d="M 711.0359497070312 14.20904541015625 L 15.586181640625 777.1779174804688 L 1433.116088867188 802.5497436523438 L 711.0359497070312 14.20904541015625 M 711.0341796875 12.72650146484375 L 1435.426147460938 803.5912475585938 L 13.3577880859375 778.1381225585938 L 711.0341796875 12.72650146484375 Z" stroke="none" fill="#707070"/>
          </g>
          <g id="Dreieck-10" data-name="Dreieck" transform="matrix(0.788, -0.616, 0.616, 0.788, 1135.357, 3727.789)" fill="#fff" opacity="0.036">
            <path d="M -18.9747257232666 766.7147216796875 L 721.4102172851562 -18.48091316223145 L 1421.53271484375 728.3545532226562 L -18.9747257232666 766.7147216796875 Z" stroke="none"/>
            <path d="M 721.4089965820312 -17.75091552734375 L -17.7862548828125 766.1827392578125 L 1420.406494140625 727.8843994140625 L 721.4089965820312 -17.75091552734375 M 721.4111938476562 -19.21087646484375 L 1422.658813476562 728.82470703125 L -20.1636962890625 767.246337890625 L 721.4111938476562 -19.21087646484375 Z" stroke="none" fill="#707070"/>
          </g>
        </g>
      </g>
    </g>
  </g>
</svg>