<?xml version="1.0" encoding="utf-8"?>
<!-- Generator: Adobe Illustrator 25.4.1, SVG Export Plug-In . SVG Version: 6.00 Build 0)  -->
<svg version="1.1" id="Ebene_1" xmlns="http://www.w3.org/2000/svg" xmlns:xlink="http://www.w3.org/1999/xlink" x="0px" y="0px"
	 viewBox="0 0 600 1429.4" style="enable-background:new 0 0 600 1429.4;" xml:space="preserve">
<style type="text/css">
	.st0{clip-path:url(#Hintergrundfläche-2_00000132778673358976233090000014057742567373926064_);}
	.st1{opacity:3.600000e-02;}
	.st2{fill:#FFFFFF;}
	.st3{fill:#717070;}
</style>
<g>
	<defs>
		<path id="Hintergrundfläche-2" d="M600,0H0v1429.4h600V0z"/>
	</defs>
	<clipPath id="Hintergrundfläche-2_00000114075887545625649000000018259446633425050241_">
		<use xlink:href="#Hintergrundfläche_x002D_2"  style="overflow:visible;"/>
	</clipPath>
	
		<g id="Gruppe_3691" transform="translate(27.717 -16.527)" style="clip-path:url(#Hintergrundfläche-2_00000114075887545625649000000018259446633425050241_);">
		<g id="Dreieck" transform="matrix(-0.087, -0.996, 0.996, -0.087, 1709.002, 1917.313)" class="st1">
			<path class="st2" d="M1971.5-971.4l-531.7-5.8l262.8-241.4L1971.5-971.4z"/>
			<path class="st3" d="M1702.6-1218.4l-262.4,241l530.8,5.8L1702.6-1218.4 M1702.6-1218.8l269.3,247.6l-532.5-5.8L1702.6-1218.8z"
				/>
		</g>
		<g id="Dreieck-2" transform="translate(1694.775 0) rotate(20)" class="st1">
			<path class="st2" d="M-791.7,681.3l-468.1-8.4l229.6-251.9L-791.7,681.3z"/>
			<path class="st3" d="M-1030.1,421.2l-229.3,251.5l467.3,8.4L-1030.1,421.2 M-1030.1,420.7l238.8,260.7l-468.8-8.4L-1030.1,420.7z
				"/>
		</g>
		<g id="Dreieck-3" transform="translate(297.122 854.012) rotate(20)" class="st1">
			<path class="st2" d="M-107.1-177.1l-468.1-8.4l229.6-251.9L-107.1-177.1z"/>
			<path class="st3" d="M-345.5-437.2l-229.3,251.5l467.3,8.4L-345.5-437.2 M-345.5-437.7l238.8,260.7l-468.8-8.4L-345.5-437.7z"/>
		</g>
		<g id="Dreieck-4" transform="matrix(0.788, -0.616, 0.616, 0.788, 0, 1482.826)" class="st1">
			<path class="st2" d="M477.7-682.4l244.1-258.9l230.8,246.2L477.7-682.4z"/>
			<path class="st3" d="M721.8-941L478.1-682.6l474.1-12.6L721.8-941 M721.8-941.5L953-694.9l-475.7,12.7L721.8-941.5z"/>
		</g>
		<g id="Dreieck-5" transform="matrix(-0.087, -0.996, 0.996, -0.087, 1709.002, 3394.363)" class="st1">
			<path class="st2" d="M2958.1-885.2l-531.7-5.8l262.8-241.4L2958.1-885.2z"/>
			<path class="st3" d="M2689.2-1132.2l-262.4,241l530.8,5.8L2689.2-1132.2 M2689.2-1132.6L2958.5-885l-532.5-5.8L2689.2-1132.6z"/>
		</g>
		<g id="Dreieck-6" transform="translate(1694.775 1477.049) rotate(20)" class="st1">
			<path class="st2" d="M-1130.3-249.1l-468.1-8.4l229.6-251.9L-1130.3-249.1z"/>
			<path class="st3" d="M-1368.8-509.2L-1598-257.7l467.3,8.4L-1368.8-509.2 M-1368.8-509.7L-1130-249l-468.8-8.4L-1368.8-509.7z"/>
		</g>
		<g id="Dreieck-7" transform="translate(297.122 2331.062) rotate(20)" class="st1">
			<path class="st2" d="M-445.8-1107.5l-468.1-8.4l229.6-251.9L-445.8-1107.5z"/>
			<path class="st3" d="M-684.2-1367.6L-913.5-1116l467.3,8.4L-684.2-1367.6 M-684.2-1368.1l238.8,260.7l-468.8-8.4L-684.2-1368.1z"
				/>
		</g>
		<g id="Dreieck-8" transform="matrix(0.788, -0.616, 0.616, 0.788, 0, 2959.875)" class="st1">
			<path class="st2" d="M1087.4-1462.3l244.1-258.9l230.8,246.2L1087.4-1462.3z"/>
			<path class="st3" d="M1331.5-1720.9l-243.7,258.4l474.1-12.6L1331.5-1720.9 M1331.5-1721.4l231.2,246.6l-475.7,12.7
				L1331.5-1721.4z"/>
		</g>
		<g id="Dreieck-9" transform="translate(1432.479 3098.975) rotate(20)" class="st1">
			<path class="st2" d="M-1337-1330.9l-468.1-8.4l229.6-251.9L-1337-1330.9z"/>
			<path class="st3" d="M-1575.4-1591l-229.3,251.5l467.3,8.4L-1575.4-1591 M-1575.4-1591.5l238.8,260.7l-468.8-8.4L-1575.4-1591.5z
				"/>
		</g>
		<g id="Dreieck-10" transform="matrix(0.788, -0.616, 0.616, 0.788, 1135.357, 3727.789)" class="st1">
			<path class="st2" d="M804.9-2336.4l244.1-258.9l230.8,246.2L804.9-2336.4z"/>
			<path class="st3" d="M1049-2595l-243.7,258.4l474.1-12.6L1049-2595 M1049-2595.5l231.2,246.6l-475.7,12.7L1049-2595.5z"/>
		</g>
	</g>
</g>
</svg>
