<svg id="teaser-blog-detail" xmlns="http://www.w3.org/2000/svg" xmlns:xlink="http://www.w3.org/1999/xlink" width="687.999" height="722.72" viewBox="0 0 687.999 722.72">
  <defs>
    <linearGradient id="linear-gradient" x1="0.5" x2="1.072" y2="1.542" gradientUnits="objectBoundingBox">
      <stop offset="0" stop-color="#7a8d96"/>
      <stop offset="1" stop-color="#ba2b2b"/>
    </linearGradient>
    <clipPath id="clip-path">
      <path id="Hintergrundfläche" d="M5855.145,1050.25l687.834.017V1647.36l-688,125.61Z" transform="translate(-5754.979 10569.234)" fill="#607886"/>
    </clipPath>
    <clipPath id="clip-path-2">
      <path id="Hintergrundfläche-2" data-name="Hintergrundfläche" d="M6542.978,1029.182h-688V2746h688Z" transform="translate(-5854.977 -1029.182)" fill="url(#linear-gradient)"/>
    </clipPath>
  </defs>
  <g id="Group_3494" data-name="Group 3494" transform="translate(-80)">
    <g id="Mask_Group_54" data-name="Mask Group 54" transform="translate(-20 -11619.484)" clip-path="url(#clip-path)">
      <g id="Group_3340" data-name="Group 3340" transform="translate(100 11611.519)">
        <path id="Hintergrundfläche-3" data-name="Hintergrundfläche" d="M6542.978,1050.182h-688V2199.1h688Z" transform="translate(-5854.977 -1042.243)" fill="none"/>
        <g id="Mask_Group_53" data-name="Mask Group 53" transform="translate(0 0)" clip-path="url(#clip-path-2)">
          <g id="Group_3339" data-name="Group 3339" transform="translate(-201.936 -59.822)">
            <g id="Dreieck" transform="matrix(-0.087, -0.996, 0.996, -0.087, 657.792, 717.067)" fill="#fff" opacity="0.036">
              <path d="M 609.3389282226562 283.4224853515625 L 1.268315076828003 276.7520446777344 L 301.8029479980469 0.679086446762085 L 609.3389282226562 283.4224853515625 Z" stroke="none"/>
              <path d="M 301.8027954101562 1.35821533203125 L 2.53662109375 276.2659606933594 L 608.0408325195312 282.9082641601562 L 301.8027954101562 1.35821533203125 M 301.8030700683594 3.0517578125e-05 L 610.6370849609375 283.9367980957031 L 0 277.2381896972656 L 301.8030700683594 3.0517578125e-05 Z" stroke="none" fill="#707070"/>
            </g>
            <g id="Dreieck-2" data-name="Dreieck" transform="translate(654.239 0) rotate(20)" fill="#fff" opacity="0.036">
              <path d="M 536.4180908203125 298.4434814453125 L 1.114214539527893 288.8623046875 L 263.7378845214844 0.7412376403808594 L 536.4180908203125 298.4434814453125 Z" stroke="none"/>
              <path d="M 263.7388305664062 1.48248291015625 L 2.2283935546875 288.3821411132812 L 535.2630004882812 297.9227294921875 L 263.7388305664062 1.48248291015625 M 263.7370300292969 -3.0517578125e-05 L 537.5731201171875 298.9642639160156 L -6.103515625e-05 289.3424377441406 L 263.7370300292969 -3.0517578125e-05 Z" stroke="none" fill="#707070"/>
            </g>
            <g id="Dreieck-3" data-name="Dreieck" transform="translate(125.896 322.835) rotate(20)" fill="#fff" opacity="0.036">
              <path d="M 536.4180908203125 298.4434814453125 L 1.114214539527893 288.8623046875 L 263.7378845214844 0.7412376403808594 L 536.4180908203125 298.4434814453125 Z" stroke="none"/>
              <path d="M 263.7388305664062 1.48248291015625 L 2.2283935546875 288.3821411132812 L 535.2630004882812 297.9227294921875 L 263.7388305664062 1.48248291015625 M 263.7370300292969 -3.0517578125e-05 L 537.5731201171875 298.9642639160156 L -6.103515625e-05 289.3424377441406 L 263.7370300292969 -3.0517578125e-05 Z" stroke="none" fill="#707070"/>
            </g>
            <g id="Dreieck-4" data-name="Dreieck" transform="matrix(0.788, -0.616, 0.616, 0.788, 0, 553.263)" fill="#fff" opacity="0.036">
              <path d="M 1.188671231269836 296.7663269042969 L 280.3305358886719 0.7299388647079468 L 544.2925415039062 282.3037719726562 L 1.188671231269836 296.7663269042969 Z" stroke="none"/>
              <path d="M 280.3294677734375 1.459869384765625 L 2.37744140625 296.2344360351562 L 543.1663818359375 281.8334655761719 L 280.3294677734375 1.459869384765625 M 280.3315734863281 0 L 545.4186401367188 282.7738647460938 L 0 297.2981262207031 L 280.3315734863281 0 Z" stroke="none" fill="#707070"/>
            </g>
            <g id="Dreieck-5" data-name="Dreieck" transform="matrix(-0.087, -0.996, 0.996, -0.087, 657.792, 1275.424)" fill="#fff" opacity="0.036">
              <path d="M 609.3389282226562 283.4224853515625 L 1.268315076828003 276.7520446777344 L 301.8029479980469 0.679086446762085 L 609.3389282226562 283.4224853515625 Z" stroke="none"/>
              <path d="M 301.8027954101562 1.35821533203125 L 2.53662109375 276.2659606933594 L 608.0408325195312 282.9082641601562 L 301.8027954101562 1.35821533203125 M 301.8030700683594 3.0517578125e-05 L 610.6370849609375 283.9367980957031 L 0 277.2381896972656 L 301.8030700683594 3.0517578125e-05 Z" stroke="none" fill="#707070"/>
            </g>
            <g id="Dreieck-6" data-name="Dreieck" transform="translate(654.239 558.357) rotate(20)" fill="#fff" opacity="0.036">
              <path d="M 536.4180908203125 298.4434814453125 L 1.114214539527893 288.8623046875 L 263.7378845214844 0.7412376403808594 L 536.4180908203125 298.4434814453125 Z" stroke="none"/>
              <path d="M 263.7388305664062 1.48248291015625 L 2.2283935546875 288.3821411132812 L 535.2630004882812 297.9227294921875 L 263.7388305664062 1.48248291015625 M 263.7370300292969 -3.0517578125e-05 L 537.5731201171875 298.9642639160156 L -6.103515625e-05 289.3424377441406 L 263.7370300292969 -3.0517578125e-05 Z" stroke="none" fill="#707070"/>
            </g>
            <g id="Dreieck-7" data-name="Dreieck" transform="translate(125.896 881.193) rotate(20)" fill="#fff" opacity="0.036">
              <path d="M 536.4180908203125 298.4434814453125 L 1.114214539527893 288.8623046875 L 263.7378845214844 0.7412376403808594 L 536.4180908203125 298.4434814453125 Z" stroke="none"/>
              <path d="M 263.7388305664062 1.48248291015625 L 2.2283935546875 288.3821411132812 L 535.2630004882812 297.9227294921875 L 263.7388305664062 1.48248291015625 M 263.7370300292969 -3.0517578125e-05 L 537.5731201171875 298.9642639160156 L -6.103515625e-05 289.3424377441406 L 263.7370300292969 -3.0517578125e-05 Z" stroke="none" fill="#707070"/>
            </g>
            <g id="Dreieck-8" data-name="Dreieck" transform="matrix(0.788, -0.616, 0.616, 0.788, 0, 1111.62)" fill="#fff" opacity="0.036">
              <path d="M 1.188671231269836 296.7663269042969 L 280.3305358886719 0.7299388647079468 L 544.2925415039062 282.3037719726562 L 1.188671231269836 296.7663269042969 Z" stroke="none"/>
              <path d="M 280.3294677734375 1.459869384765625 L 2.37744140625 296.2344360351562 L 543.1663818359375 281.8334655761719 L 280.3294677734375 1.459869384765625 M 280.3315734863281 0 L 545.4186401367188 282.7738647460938 L 0 297.2981262207031 L 280.3315734863281 0 Z" stroke="none" fill="#707070"/>
            </g>
            <g id="Dreieck-9" data-name="Dreieck" transform="translate(555.085 1171.481) rotate(20)" fill="#fff" opacity="0.036">
              <path d="M 536.4180908203125 298.4434814453125 L 1.114214539527893 288.8623046875 L 263.7378845214844 0.7412376403808594 L 536.4180908203125 298.4434814453125 Z" stroke="none"/>
              <path d="M 263.7388305664062 1.48248291015625 L 2.2283935546875 288.3821411132812 L 535.2630004882812 297.9227294921875 L 263.7388305664062 1.48248291015625 M 263.7370300292969 -3.0517578125e-05 L 537.5731201171875 298.9642639160156 L -6.103515625e-05 289.3424377441406 L 263.7370300292969 -3.0517578125e-05 Z" stroke="none" fill="#707070"/>
            </g>
            <g id="Dreieck-10" data-name="Dreieck" transform="matrix(0.788, -0.616, 0.616, 0.788, 429.19, 1401.908)" fill="#fff" opacity="0.036">
              <path d="M 1.188671231269836 296.7663269042969 L 280.3305358886719 0.7299388647079468 L 544.2925415039062 282.3037719726562 L 1.188671231269836 296.7663269042969 Z" stroke="none"/>
              <path d="M 280.3294677734375 1.459869384765625 L 2.37744140625 296.2344360351562 L 543.1663818359375 281.8334655761719 L 280.3294677734375 1.459869384765625 M 280.3315734863281 0 L 545.4186401367188 282.7738647460938 L 0 297.2981262207031 L 280.3315734863281 0 Z" stroke="none" fill="#707070"/>
            </g>
          </g>
        </g>
      </g>
    </g>
  </g>
</svg>
